<svg width="1200" height="800" viewBox="0 0 1200 800" fill="none" xmlns="http://www.w3.org/2000/svg">
  <rect width="1200" height="800" rx="40" fill="url(#paint0_linear_4_2)"/>
  <circle cx="1010" cy="110" r="190" fill="#CFFAFF" fill-opacity="0.18"/>
  <rect x="180" y="146" width="840" height="520" rx="46" fill="#F7FEFF"/>
  <rect x="240" y="212" width="720" height="92" rx="24" fill="#073B4D"/>
  <rect x="284" y="238" width="280" height="18" rx="9" fill="#B4F6FF"/>
  <rect x="284" y="270" width="180" height="18" rx="9" fill="#69E0F3"/>
  <rect x="240" y="344" width="720" height="92" rx="24" fill="#0BB7D4"/>
  <rect x="284" y="370" width="320" height="18" rx="9" fill="#E4FCFF"/>
  <rect x="284" y="402" width="200" height="18" rx="9" fill="#B4F6FF"/>
  <rect x="240" y="476" width="720" height="92" rx="24" fill="#138CC4"/>
  <rect x="284" y="502" width="250" height="18" rx="9" fill="#E4FCFF"/>
  <rect x="284" y="534" width="160" height="18" rx="9" fill="#B4F6FF"/>
  <circle cx="874" cy="390" r="54" fill="#08384A"/>
  <path d="M846 392L867 413L906 364" stroke="#8EF0FB" stroke-width="20" stroke-linecap="round" stroke-linejoin="round"/>
  <defs>
    <linearGradient id="paint0_linear_4_2" x1="127" y1="82" x2="1076" y2="739" gradientUnits="userSpaceOnUse">
      <stop stop-color="#0A6985"/>
      <stop offset="1" stop-color="#0BB7D4"/>
    </linearGradient>
  </defs>
</svg>
