<svg width="1200" height="800" viewBox="0 0 1200 800" fill="none" xmlns="http://www.w3.org/2000/svg">
  <rect width="1200" height="800" rx="40" fill="url(#paint0_linear_5_2)"/>
  <circle cx="1074" cy="148" r="220" fill="#CCFAFF" fill-opacity="0.18"/>
  <path d="M172 630C310 516 368 394 555 369C742 344 867 426 1030 331V678H172V630Z" fill="#D9FAFF" fill-opacity="0.16"/>
  <rect x="176" y="150" width="848" height="500" rx="50" fill="#F7FEFF"/>
  <rect x="240" y="212" width="250" height="170" rx="28" fill="#0CBAD7"/>
  <rect x="240" y="432" width="250" height="170" rx="28" fill="#0B3F52"/>
  <rect x="538" y="212" width="420" height="80" rx="24" fill="#108CC4"/>
  <rect x="580" y="236" width="210" height="16" rx="8" fill="#E7FDFF"/>
  <rect x="538" y="318" width="420" height="80" rx="24" fill="#0BB7D4"/>
  <rect x="580" y="342" width="260" height="16" rx="8" fill="#E7FDFF"/>
  <rect x="538" y="424" width="420" height="80" rx="24" fill="#108CC4"/>
  <rect x="580" y="448" width="180" height="16" rx="8" fill="#E7FDFF"/>
  <rect x="538" y="530" width="420" height="80" rx="24" fill="#0CBAD7"/>
  <rect x="580" y="554" width="240" height="16" rx="8" fill="#E7FDFF"/>
  <defs>
    <linearGradient id="paint0_linear_5_2" x1="103" y1="79" x2="1045" y2="724" gradientUnits="userSpaceOnUse">
      <stop stop-color="#075067"/>
      <stop offset="1" stop-color="#13B0D2"/>
    </linearGradient>
  </defs>
</svg>
